{
	"patcher" : 	{
		"fileversion" : 1,
		"appversion" : 		{
			"major" : 6,
			"minor" : 1,
			"revision" : 10,
			"architecture" : "x86"
		}
,
		"rect" : [ 653.0, 86.0, 640.0, 480.0 ],
		"bglocked" : 0,
		"openinpresentation" : 0,
		"default_fontsize" : 12.0,
		"default_fontface" : 0,
		"default_fontname" : "Arial",
		"gridonopen" : 0,
		"gridsize" : [ 15.0, 15.0 ],
		"gridsnaponopen" : 0,
		"statusbarvisible" : 2,
		"toolbarvisible" : 1,
		"boxanimatetime" : 200,
		"imprint" : 0,
		"enablehscroll" : 1,
		"enablevscroll" : 1,
		"devicewidth" : 0.0,
		"description" : "",
		"digest" : "",
		"tags" : "",
		"boxes" : [ 			{
				"box" : 				{
					"fontname" : "Arial",
					"fontsize" : 12.0,
					"id" : "obj-6",
					"maxclass" : "flonum",
					"numinlets" : 1,
					"numoutlets" : 2,
					"outlettype" : [ "float", "bang" ],
					"parameter_enable" : 0,
					"patching_rect" : [ 174.0, 144.0, 50.0, 20.0 ]
				}

			}
, 			{
				"box" : 				{
					"fontname" : "Arial",
					"fontsize" : 12.0,
					"frgb" : 0.0,
					"id" : "obj-17",
					"linecount" : 3,
					"maxclass" : "comment",
					"numinlets" : 1,
					"numoutlets" : 0,
					"patching_rect" : [ 8.5, 90.0, 118.0, 48.0 ],
					"text" : "set internal state (real & imaginary parts)."
				}

			}
, 			{
				"box" : 				{
					"fontname" : "Arial",
					"fontsize" : 12.0,
					"frgb" : 0.0,
					"id" : "obj-12",
					"maxclass" : "comment",
					"numinlets" : 1,
					"numoutlets" : 0,
					"patching_rect" : [ 27.0, 21.0, 165.5, 20.0 ],
					"text" : "clear internal state to zero."
				}

			}
, 			{
				"box" : 				{
					"fontname" : "Arial",
					"fontsize" : 12.0,
					"frgb" : 0.0,
					"id" : "obj-22",
					"linecount" : 8,
					"maxclass" : "comment",
					"numinlets" : 1,
					"numoutlets" : 0,
					"patching_rect" : [ 337.0, 342.0, 291.0, 117.0 ],
					"text" : "The action of [rzero_rev~] is:\n\ny[n] = -a[n] * x[n] + x[n-1]\n\nwhere y[n] is the output, x[n] the input, and a[n] the filter coefficient. The filter is always stable.\n\nThe transfer function is H(Z) = -a + Z^-1."
				}

			}
, 			{
				"box" : 				{
					"fontname" : "Arial",
					"fontsize" : 12.0,
					"frgb" : 0.0,
					"id" : "obj-20",
					"linecount" : 5,
					"maxclass" : "comment",
					"numinlets" : 1,
					"numoutlets" : 0,
					"patching_rect" : [ 318.0, 21.0, 303.0, 75.0 ],
					"text" : "[rzero_rev~] filters an audio signal (left inlet) via a one-zero real filter, whose coefficient is controlled by a creation argument or by an audio signal (right inlet). The impulse response is that of \"rzero\" reversed in time."
				}

			}
, 			{
				"box" : 				{
					"fontname" : "Arial",
					"fontsize" : 12.0,
					"id" : "obj-13",
					"maxclass" : "flonum",
					"numinlets" : 1,
					"numoutlets" : 2,
					"outlettype" : [ "float", "bang" ],
					"parameter_enable" : 0,
					"patching_rect" : [ 49.0, 255.0, 50.0, 20.0 ]
				}

			}
, 			{
				"box" : 				{
					"fontname" : "Arial",
					"fontsize" : 12.0,
					"id" : "obj-11",
					"maxclass" : "newobj",
					"numinlets" : 1,
					"numoutlets" : 1,
					"outlettype" : [ "float" ],
					"patching_rect" : [ 49.0, 222.0, 37.0, 20.0 ],
					"text" : "env~"
				}

			}
, 			{
				"box" : 				{
					"id" : "obj-9",
					"maxclass" : "ezdac~",
					"numinlets" : 2,
					"numoutlets" : 0,
					"patching_rect" : [ 115.0, 342.0, 45.0, 45.0 ]
				}

			}
, 			{
				"box" : 				{
					"id" : "obj-8",
					"maxclass" : "spectroscope~",
					"numinlets" : 2,
					"numoutlets" : 1,
					"outlettype" : [ "" ],
					"patching_rect" : [ 115.0, 222.0, 300.0, 100.0 ]
				}

			}
, 			{
				"box" : 				{
					"fontname" : "Arial",
					"fontsize" : 12.0,
					"id" : "obj-2",
					"maxclass" : "newobj",
					"numinlets" : 1,
					"numoutlets" : 1,
					"outlettype" : [ "signal" ],
					"patching_rect" : [ 115.0, 49.0, 46.0, 20.0 ],
					"text" : "noise~"
				}

			}
, 			{
				"box" : 				{
					"fontname" : "Arial",
					"fontsize" : 12.0,
					"id" : "obj-1",
					"maxclass" : "newobj",
					"numinlets" : 2,
					"numoutlets" : 1,
					"outlettype" : [ "signal" ],
					"patching_rect" : [ 115.0, 184.0, 78.0, 20.0 ],
					"text" : "rzero_rev~ 1"
				}

			}
, 			{
				"box" : 				{
					"fontname" : "Arial",
					"fontsize" : 12.0,
					"id" : "obj-3",
					"maxclass" : "message",
					"numinlets" : 2,
					"numoutlets" : 1,
					"outlettype" : [ "" ],
					"patching_rect" : [ 27.0, 49.0, 50.0, 18.0 ],
					"text" : "clear"
				}

			}
, 			{
				"box" : 				{
					"fontname" : "Arial",
					"fontsize" : 12.0,
					"id" : "obj-4",
					"maxclass" : "message",
					"numinlets" : 2,
					"numoutlets" : 1,
					"outlettype" : [ "" ],
					"patching_rect" : [ 27.0, 144.0, 37.0, 18.0 ],
					"text" : "set 1"
				}

			}
 ],
		"lines" : [ 			{
				"patchline" : 				{
					"destination" : [ "obj-11", 0 ],
					"disabled" : 0,
					"hidden" : 0,
					"source" : [ "obj-1", 0 ]
				}

			}
, 			{
				"patchline" : 				{
					"destination" : [ "obj-8", 0 ],
					"disabled" : 0,
					"hidden" : 0,
					"source" : [ "obj-1", 0 ]
				}

			}
, 			{
				"patchline" : 				{
					"destination" : [ "obj-13", 0 ],
					"disabled" : 0,
					"hidden" : 0,
					"source" : [ "obj-11", 0 ]
				}

			}
, 			{
				"patchline" : 				{
					"destination" : [ "obj-1", 0 ],
					"disabled" : 0,
					"hidden" : 0,
					"source" : [ "obj-2", 0 ]
				}

			}
, 			{
				"patchline" : 				{
					"destination" : [ "obj-1", 0 ],
					"disabled" : 0,
					"hidden" : 0,
					"midpoints" : [ 36.5, 90.0, 124.5, 90.0 ],
					"source" : [ "obj-3", 0 ]
				}

			}
, 			{
				"patchline" : 				{
					"destination" : [ "obj-1", 0 ],
					"disabled" : 0,
					"hidden" : 0,
					"midpoints" : [ 36.5, 172.0, 124.5, 172.0 ],
					"source" : [ "obj-4", 0 ]
				}

			}
, 			{
				"patchline" : 				{
					"destination" : [ "obj-1", 1 ],
					"disabled" : 0,
					"hidden" : 0,
					"source" : [ "obj-6", 0 ]
				}

			}
 ],
		"dependency_cache" : [ 			{
				"name" : "rzero_rev~.mxe",
				"type" : "iLaF"
			}
, 			{
				"name" : "env~.mxe",
				"type" : "iLaF"
			}
 ]
	}

}
